# xmcd
#
# Track frame offsets: 
#        150
#        16312
#        29340
#        47607
#        65860
#        85065
#        96747
#        111272
#        121215
#        138600
#        156510
#        165772
#        179225
#        191492
#
# Disc length: 2803 seconds
#
# Revision: 0
# Processed by: cddbd v1.5.1PL0 Copyright (c) Steve Scherf et al.
# Submitted via: ExactAudioCopy v0.95a4
#
DISCID=c70af10e
DTITLE=The Swaggerts - Keepers of the Quaich
DYEAR=2004
DGENRE=Country
TTITLE0=Shake
TTITLE1=Cost So Much
TTITLE2=Queen of Hallowe'en
TTITLE3=Innocence Lost
TTITLE4=Salvation
TTITLE5=Hop Down in Hell
TTITLE6=Push Comes to Shove
TTITLE7=Real Good Liar
TTITLE8=Walk of Shame
TTITLE9=Dead Wood
TTITLE10=Drink Her Out of My Mind
TTITLE11=Streams of Whiskey
TTITLE12=Kingpin
TTITLE13=25
EXTD=
EXTT0=
EXTT1=
EXTT2=
EXTT3=
EXTT4=
EXTT5=
EXTT6=
EXTT7=
EXTT8=
EXTT9=
EXTT10=
EXTT11=
EXTT12=
EXTT13=
PLAYORDER=
